<?xml version="1.0" encoding="utf-8"?>
<!-- Uploaded to: SVG Repo, www.svgrepo.com, Generator: SVG Repo Mixer Tools -->
<svg width="800px" height="800px" viewBox="-11.81 0 109.217 109.217" xmlns="http://www.w3.org/2000/svg">
  <g id="Group_2017" data-name="Group 2017" transform="translate(-916.23 -382.607)">
    <g id="Group_2015" data-name="Group 2015">
      <g id="Group_1914" data-name="Group 1914">
        <g id="Group_1913" data-name="Group 1913">
          <g id="Group_1912" data-name="Group 1912">
            <g id="Group_1911" data-name="Group 1911">
              <g id="Group_1910" data-name="Group 1910">
                <path id="Path_1078" data-name="Path 1078" d="M952.988,405.292a4.585,4.585,0,0,1,.672-2.828l-.765-.681c-7.994-5.737-12.65-15.591-21.26-15.591s-14.174,3.687-14.174,9.922c3.935.068,5.565.64,8.5,2.834a7.323,7.323,0,0,1,2.835,5.67l9.921,14.173,0,.01c.034.224,2.048,13.185,12.754,19.832.531.33,1.1.68,1.677,1.038l6.625-20.537A20.7,20.7,0,0,1,952.988,405.292Z" fill="#94d056"/>
              </g>
            </g>
          </g>
        </g>
      </g>
      <g id="Group_1919" data-name="Group 1919">
        <g id="Group_1918" data-name="Group 1918">
          <g id="Group_1917" data-name="Group 1917">
            <g id="Group_1916" data-name="Group 1916">
              <g id="Group_1915" data-name="Group 1915">
                <path id="Path_1079" data-name="Path 1079" d="M925.965,398.948c-2.939-2.194-4.569-2.766-8.5-2.834,0,0-3.225,9.245,7.087,11.338l-1.417-2.834s3.526,1.4,5.669,0A7.323,7.323,0,0,0,925.965,398.948Z" fill="#e4cec0"/>
              </g>
            </g>
          </g>
        </g>
      </g>
      <g id="Group_1924" data-name="Group 1924">
        <g id="Group_1923" data-name="Group 1923">
          <g id="Group_1922" data-name="Group 1922">
            <g id="Group_1921" data-name="Group 1921">
              <g id="Group_1920" data-name="Group 1920">
                <path id="Path_1080" data-name="Path 1080" d="M923.131,404.618" fill="none" stroke="#7a7a7a" stroke-linecap="round" stroke-linejoin="round" stroke-width="3"/>
              </g>
            </g>
          </g>
        </g>
      </g>
      <g id="Group_1929" data-name="Group 1929">
        <g id="Group_1928" data-name="Group 1928">
          <g id="Group_1927" data-name="Group 1927">
            <g id="Group_1926" data-name="Group 1926">
              <g id="Group_1925" data-name="Group 1925">
                <path id="Path_1081" data-name="Path 1081" d="M923.131,405.368a.75.75,0,0,1-.75-.75v-2.835a.75.75,0,0,1,.219-.53l2.835-2.835a.75.75,0,1,1,1.061,1.061l-2.615,2.615v2.524A.75.75,0,0,1,923.131,405.368Z" fill="#7a7a7a"/>
              </g>
            </g>
          </g>
        </g>
      </g>
      <g id="Group_1934" data-name="Group 1934">
        <g id="Group_1933" data-name="Group 1933">
          <g id="Group_1932" data-name="Group 1932">
            <g id="Group_1931" data-name="Group 1931">
              <g id="Group_1930" data-name="Group 1930">
                <path id="Path_1082" data-name="Path 1082" d="M1001.083,491.074l-20.962-56.326,3.955,23.728s1.287,3.808,5.669,15.59C993.193,483.337,1001.083,491.074,1001.083,491.074Z" fill="#5cb755"/>
              </g>
            </g>
          </g>
        </g>
      </g>
      <g id="Group_1939" data-name="Group 1939">
        <g id="Group_1938" data-name="Group 1938">
          <g id="Group_1937" data-name="Group 1937">
            <g id="Group_1936" data-name="Group 1936">
              <g id="Group_1935" data-name="Group 1935">
                <path id="Path_1083" data-name="Path 1083" d="M989.745,474.066c-4.382-11.782-5.669-15.59-5.669-15.59s-6.778-4.085-14.646-8.86c4.618,7.232,8.7,16.636,14.646,25.868,9.967,15.48,17.007,15.59,17.007,15.59S993.193,483.337,989.745,474.066Z" fill="#ffff40"/>
              </g>
            </g>
          </g>
        </g>
      </g>
      <g id="Group_1944" data-name="Group 1944">
        <g id="Group_1943" data-name="Group 1943">
          <g id="Group_1942" data-name="Group 1942">
            <g id="Group_1941" data-name="Group 1941">
              <g id="Group_1940" data-name="Group 1940">
                <path id="Path_1084" data-name="Path 1084" d="M948.629,401.783c1.661,1.66,2,4.181.344,5.841a4.251,4.251,0,0,1-6.013,0Z" fill="#f95b67"/>
              </g>
            </g>
          </g>
        </g>
      </g>
      <g id="Group_1949" data-name="Group 1949">
        <g id="Group_1948" data-name="Group 1948">
          <g id="Group_1947" data-name="Group 1947">
            <g id="Group_1946" data-name="Group 1946">
              <g id="Group_1945" data-name="Group 1945">
                <path id="Path_1085" data-name="Path 1085" d="M944.377,394.7c1.661,1.661,2.005,4.181.344,5.842a4.253,4.253,0,0,1-6.013,0Z" fill="#f95b67"/>
              </g>
            </g>
          </g>
        </g>
      </g>
      <g id="Group_1954" data-name="Group 1954">
        <g id="Group_1953" data-name="Group 1953">
          <g id="Group_1952" data-name="Group 1952">
            <g id="Group_1951" data-name="Group 1951">
              <g id="Group_1950" data-name="Group 1950">
                <path id="Path_1086" data-name="Path 1086" d="M938.708,404.618c1.66,1.66,2,4.18.344,5.841a4.253,4.253,0,0,1-6.013,0Z" fill="#f95b67"/>
              </g>
            </g>
          </g>
        </g>
      </g>
      <g id="Group_1959" data-name="Group 1959">
        <g id="Group_1958" data-name="Group 1958">
          <g id="Group_1957" data-name="Group 1957">
            <g id="Group_1956" data-name="Group 1956">
              <g id="Group_1955" data-name="Group 1955">
                <path id="Path_1087" data-name="Path 1087" d="M938.723,418.8h0l-.1.007a4.494,4.494,0,0,0-4.056,4.919,20.378,20.378,0,0,0,8.044,14.843A50.079,50.079,0,0,1,938.723,418.8Z" fill="#f95b67"/>
              </g>
            </g>
          </g>
        </g>
      </g>
      <g id="Group_1964" data-name="Group 1964">
        <g id="Group_1963" data-name="Group 1963">
          <g id="Group_1962" data-name="Group 1962">
            <g id="Group_1961" data-name="Group 1961">
              <g id="Group_1960" data-name="Group 1960">
                <path id="Path_1088" data-name="Path 1088" d="M962.816,403.2s-2.29-3.049-5.67-2.834c0,5.82,1.737,10.885,4.312,13.562l2.948-9.137Z" fill="#5cb755"/>
              </g>
            </g>
          </g>
        </g>
      </g>
      <g id="Group_1969" data-name="Group 1969">
        <g id="Group_1968" data-name="Group 1968">
          <g id="Group_1967" data-name="Group 1967">
            <g id="Group_1966" data-name="Group 1966">
              <g id="Group_1965" data-name="Group 1965">
                <path id="Path_1089" data-name="Path 1089" d="M957.146,400.366l-.1.007a4.38,4.38,0,0,0-3.384,2.091,4.585,4.585,0,0,0-.672,2.828,20.7,20.7,0,0,0,6.791,13.842l1.679-5.206C958.883,411.251,957.146,406.186,957.146,400.366Z" fill="#f95b67"/>
              </g>
            </g>
          </g>
        </g>
      </g>
      <g id="Group_1974" data-name="Group 1974">
        <g id="Group_1973" data-name="Group 1973">
          <g id="Group_1972" data-name="Group 1972">
            <g id="Group_1971" data-name="Group 1971">
              <g id="Group_1970" data-name="Group 1970">
                <path id="Path_1090" data-name="Path 1090" d="M951.477,438.633c-10.706-6.647-12.72-19.608-12.754-19.832a50.079,50.079,0,0,0,3.883,19.77,15.189,15.189,0,0,0,8.871,2.908l1.094,0,.583-1.806C952.573,439.313,952.008,438.963,951.477,438.633Z" fill="#ffff40"/>
              </g>
            </g>
          </g>
        </g>
      </g>
      <g id="Group_1979" data-name="Group 1979">
        <g id="Group_1978" data-name="Group 1978">
          <g id="Group_1977" data-name="Group 1977">
            <g id="Group_1976" data-name="Group 1976">
              <g id="Group_1975" data-name="Group 1975">
                <path id="Path_1091" data-name="Path 1091" d="M942.973,471.232l28.346-87.874h4.252l-28.346,87.874Z" fill="#be8a66"/>
              </g>
            </g>
          </g>
        </g>
      </g>
      <g id="Group_1984" data-name="Group 1984">
        <g id="Group_1983" data-name="Group 1983">
          <g id="Group_1982" data-name="Group 1982">
            <g id="Group_1981" data-name="Group 1981">
              <g id="Group_1980" data-name="Group 1980">
                <path id="Path_1092" data-name="Path 1092" d="M969.563,434.921a1.415,1.415,0,0,0,2.034-1.066l1.14-7.978.184-.184a24.676,24.676,0,0,0-3.019-2.65,14.9,14.9,0,0,1-6.627-1.566L961.4,427.3Z" fill="#5cb755"/>
              </g>
            </g>
          </g>
        </g>
      </g>
      <g id="Group_1989" data-name="Group 1989">
        <g id="Group_1988" data-name="Group 1988">
          <g id="Group_1987" data-name="Group 1987">
            <g id="Group_1986" data-name="Group 1986">
              <g id="Group_1985" data-name="Group 1985">
                <path id="Path_1093" data-name="Path 1093" d="M964.233,446.456c1.745,1.063,3.5,2.127,5.2,3.16,7.868,4.775,14.646,8.86,14.646,8.86l-3.955-23.728a55.228,55.228,0,0,0-7.2-9.055l-.184.184-1.139,7.975a1.417,1.417,0,0,1-2.037,1.067L961.4,427.3l-4.7,14.56c2.373,1.456,4.945,3.026,7.531,4.6" fill="#94d056"/>
              </g>
            </g>
          </g>
        </g>
      </g>
      <g id="Group_1994" data-name="Group 1994">
        <g id="Group_1993" data-name="Group 1993">
          <g id="Group_1992" data-name="Group 1992">
            <g id="Group_1991" data-name="Group 1991">
              <g id="Group_1990" data-name="Group 1990">
                <path id="Path_1094" data-name="Path 1094" d="M953.154,452.807H961.4a2.835,2.835,0,0,0,2.835-2.835v-3.516l-7.531-4.6Z" fill="#5cb755"/>
              </g>
            </g>
          </g>
        </g>
      </g>
      <g id="Group_1999" data-name="Group 1999">
        <g id="Group_1998" data-name="Group 1998">
          <g id="Group_1997" data-name="Group 1997">
            <g id="Group_1996" data-name="Group 1996">
              <g id="Group_1995" data-name="Group 1995">
                <path id="Path_1095" data-name="Path 1095" d="M988.328,442.885s-11.744-20.856-22.249-30.1l-.71,2.2,4.533,8.059s4.744,3.264,10.219,11.7a84.28,84.28,0,0,1,8.207,16.641c3.065,8.273,8.5,11.339,8.5,11.339Z" fill="#ffff40"/>
              </g>
            </g>
          </g>
        </g>
      </g>
      <g id="Group_2004" data-name="Group 2004">
        <g id="Group_2003" data-name="Group 2003">
          <g id="Group_2002" data-name="Group 2002">
            <g id="Group_2001" data-name="Group 2001">
              <g id="Group_2000" data-name="Group 2000">
                <path id="Path_1096" data-name="Path 1096" d="M985.835,434.234a79.246,79.246,0,0,0-16.8-24.816l-1.412-1.413-1.542,4.78c10.505,9.244,22.249,30.1,22.249,30.1v-2.834Z" fill="#5cb755"/>
              </g>
            </g>
          </g>
        </g>
      </g>
      <g id="Group_2009" data-name="Group 2009">
        <g id="Group_2008" data-name="Group 2008">
          <g id="Group_2007" data-name="Group 2007">
            <g id="Group_2006" data-name="Group 2006">
              <g id="Group_2005" data-name="Group 2005">
                <path id="Path_1097" data-name="Path 1097" d="M965.916,415.956h-.266a4.684,4.684,0,0,1-.581-.04l-1.794,5.561a14.9,14.9,0,0,0,6.627,1.566Z" fill="#f95b67"/>
              </g>
            </g>
          </g>
        </g>
      </g>
      <g id="Group_2014" data-name="Group 2014">
        <g id="Group_2013" data-name="Group 2013">
          <g id="Group_2012" data-name="Group 2012">
            <g id="Group_2011" data-name="Group 2011">
              <g id="Group_2010" data-name="Group 2010">
                <path id="Path_1098" data-name="Path 1098" d="M923.131,404.618" fill="none" stroke="#1a1a1a" stroke-linecap="round" stroke-linejoin="round" stroke-width="3"/>
              </g>
            </g>
          </g>
        </g>
      </g>
    </g>
    <g id="Group_2016" data-name="Group 2016">
      <circle id="Ellipse_133" data-name="Ellipse 133" cx="2.835" cy="2.835" r="2.835" transform="translate(925.256 389.736)" fill="#1a1a1a"/>
      <path id="Path_1099" data-name="Path 1099" d="M1001.823,491.007a.791.791,0,0,0-.027-.145.424.424,0,0,0-.01-.049L984.249,443.69q1.822,3.792,3.375,7.96c3.125,8.433,8.607,11.6,8.839,11.731a.75.75,0,0,0,1.058-.949l-8.444-19.7V440.05a.749.749,0,0,0-.06-.295l-2.493-5.816a79.634,79.634,0,0,0-16.961-25.052l-1.088-1.088,7.81-24.211a.75.75,0,1,0-1.427-.461l-10.471,32.458-.032.1-.111.342-2.025,6.28-2.37-.948.644-2,1.247-3.866,3.141-9.737.239-.74,6.913-21.433a.75.75,0,0,0-1.427-.461l-6.537,20.266-.689-.689c-.33-.421-2.736-3.306-6.281-3.087l-.114.008a5.063,5.063,0,0,0-3.432,1.739l-.16-.142c-.02-.017-.04-.033-.061-.048a53.763,53.763,0,0,1-7.422-6.9c-4.308-4.543-8.378-8.835-14.275-8.835-9.137,0-14.831,4.032-14.915,10.528a10.3,10.3,0,0,0,.609,7.737c1.3,2.284,3.679,3.792,7.07,4.48a.75.75,0,0,0,.82-1.07l-.659-1.318a7.04,7.04,0,0,0,4-.215l8.89,12.7a5.112,5.112,0,0,0-2.4,1.589,5.375,5.375,0,0,0-1.235,3.921,21.277,21.277,0,0,0,8.355,15.387,15.968,15.968,0,0,0,9.308,3.048h.063l-1.349,4.182-1.085-.434a1.25,1.25,0,0,0-.929,2.321l1.245.5-.2.627-1.531-.612a1.25,1.25,0,0,0-.928,2.322l1.69.675L942.259,471a.752.752,0,0,0,.484.945.767.767,0,0,0,.23.036.75.75,0,0,0,.714-.52l6.16-19.1,2.37.948L946.511,471a.752.752,0,0,0,.484.945.766.766,0,0,0,.23.036.751.751,0,0,0,.714-.52l5.674-17.589.234.094a1.238,1.238,0,0,0,1.457-.41H961.4a3.589,3.589,0,0,0,3.585-3.585V447.79c1.312.8,2.621,1.594,3.9,2.372,2.091,3.294,4.086,7.049,6.2,11.026,2.535,4.779,5.156,9.721,8.363,14.7,10.069,15.638,17.323,15.929,17.631,15.934h.008a.745.745,0,0,0,.214-.032.651.651,0,0,0,.1-.044.712.712,0,0,0,.1-.045l0,0a.756.756,0,0,0,.174-.16.748.748,0,0,0,.043-.072.7.7,0,0,0,.063-.1c0-.009,0-.019.008-.029a.738.738,0,0,0,.023-.1.724.724,0,0,0,.022-.138A.747.747,0,0,0,1001.823,491.007Zm-33.865-81.6.545.545a78.148,78.148,0,0,1,16.642,24.582l2.273,5.3-.061-.1c-.2-.333-.409-.684-.638-1.064-.02-.033-.042-.068-.061-.1-.215-.354-.444-.729-.683-1.119l-.165-.269q-.391-.635-.821-1.322l-.154-.245q-.395-.63-.82-1.3l-.16-.25q-.474-.742-.983-1.522l-.215-.328q-.5-.764-1.026-1.55l-.071-.107c-.365-.546-.743-1.1-1.126-1.661l-.261-.379c-.389-.564-.783-1.13-1.187-1.7l-.115-.162q-.562-.792-1.143-1.588l-.274-.375q-.622-.848-1.26-1.691l-.227-.3q-.578-.758-1.165-1.5l-.237-.3q-.654-.824-1.318-1.626c-.1-.117-.194-.232-.291-.348q-.627-.752-1.26-1.477l-.134-.156q-.675-.768-1.354-1.495c-.108-.116-.215-.231-.323-.345-.456-.484-.913-.957-1.369-1.41-.035-.035-.071-.067-.107-.1-.427-.422-.854-.823-1.279-1.212-.062-.057-.125-.121-.187-.177Zm-1.523,4.72.06.055c.136.127.273.261.409.392.181.175.363.348.545.528.141.141.284.288.426.432.175.178.351.355.526.539.148.153.295.312.443.469.172.184.344.366.516.554.149.163.3.329.446.495.169.187.338.375.506.566.153.174.3.351.458.527.165.191.329.381.493.574s.306.363.459.546.326.391.488.588.306.375.458.563.322.4.481.6.3.379.452.57.32.408.479.613l.449.582c.156.2.31.408.465.612s.3.393.445.591.308.414.462.622l.434.589.452.624c.142.2.284.392.424.588s.295.414.441.62l.421.6c.143.2.284.407.425.61s.274.393.409.589l.411.6c.135.2.271.4.4.592s.259.384.388.576.265.393.394.587.256.385.383.577.252.379.374.565c.141.214.277.424.414.634.1.156.206.314.3.467q.342.528.668,1.037c.08.124.156.244.234.368.149.233.3.468.442.694.105.166.2.325.306.487l.31.494c.1.163.2.317.295.475l.293.471.267.435.267.434c.089.145.172.283.257.423l.24.395.24.4.2.338c.08.132.155.258.229.382l.171.288.2.337.153.258.163.277.139.239c.046.077.088.151.129.22s.072.125.1.182l.118.2.065.112.086.15.033.059.062.109,7.338,17.121a23.867,23.867,0,0,1-5.961-9.211,85.463,85.463,0,0,0-8.281-16.789c-.346-.534-.687-1.042-1.026-1.534-.069-.1-.137-.194-.205-.292q-.42-.6-.831-1.169c-.048-.066-.095-.129-.144-.194q-.456-.621-.9-1.192l-.026-.033a39.683,39.683,0,0,0-7.044-7.32l-.007,0c-.031-.024-.069-.053-.095-.071l-4.29-7.627Zm-.878,2.724,3.02,5.369c-.059-.006-.118,0-.177-.01-.116-.013-.231-.032-.346-.047q-.572-.076-1.136-.2c-.119-.026-.238-.049-.356-.078a14.124,14.124,0,0,1-1.378-.411c-.076-.027-.151-.061-.226-.089-.256-.1-.507-.213-.759-.324Zm-2.711,8.405.923.369a1.25,1.25,0,1,0,.928-2.321l-1.082-.433.114-.354c.177.076.358.131.537.2.2.077.4.155.6.224.356.123.716.226,1.078.321.179.048.357.1.538.144q.746.169,1.5.264c.047.006.092.018.138.023q.761.088,1.532.1l.014.01c.081.061.188.143.316.246l.081.066c.1.084.225.184.355.293l.2.168c.117.1.248.216.38.334.083.074.16.141.248.222.2.179.411.38.634.594l.108.106-1.131,7.916a.666.666,0,0,1-.875.537l-6.419-5.995a1.227,1.227,0,0,0,.415-.529,1.249,1.249,0,0,0-.7-1.625l-.637-.255Zm-1.4-.559-.2.628-2.37-.948.2-.628Zm.767-21.041a.735.735,0,0,0,.068.078L963.551,405l-1.769,5.485-.618,1.916c-.012-.017-.026-.03-.038-.046-.061-.086-.116-.184-.177-.272-.2-.294-.393-.6-.575-.924-.083-.148-.16-.306-.239-.46-.15-.29-.294-.587-.429-.9-.077-.175-.151-.355-.223-.536-.127-.318-.245-.647-.357-.982-.062-.185-.126-.367-.183-.556-.117-.385-.221-.782-.319-1.185-.037-.151-.079-.3-.113-.451-.125-.562-.234-1.138-.322-1.728-.015-.106-.024-.216-.038-.323-.066-.486-.122-.979-.162-1.479-.016-.208-.024-.42-.036-.63-.015-.265-.022-.532-.029-.8A6.976,6.976,0,0,1,962.217,403.652Zm-7.919-.793h0a3.649,3.649,0,0,1,2.112-1.614c0,.022,0,.043,0,.065.019.58.058,1.152.111,1.719.008.091.016.182.025.273q.086.83.218,1.634c.015.092.031.184.047.276q.141.8.324,1.576l.057.225c.132.527.276,1.044.438,1.542.012.039.026.075.039.113q.251.758.544,1.465c.01.024.019.049.029.073.2.466.411.909.635,1.337.029.055.057.112.087.166.219.406.452.789.7,1.154.041.061.081.122.123.182a11.865,11.865,0,0,0,.766.994c.021.023.038.052.058.075l-1.176,3.648c-.084-.084-.172-.161-.255-.246-.18-.186-.353-.379-.525-.574-.221-.248-.436-.5-.644-.765q-.245-.309-.477-.63-.3-.406-.569-.832c-.144-.223-.286-.447-.421-.677-.174-.294-.337-.6-.5-.9-.123-.235-.247-.469-.361-.71-.15-.318-.286-.645-.421-.972-.1-.242-.2-.481-.293-.727-.128-.349-.238-.707-.348-1.064-.073-.237-.154-.471-.219-.711-.109-.4-.2-.812-.281-1.223-.043-.206-.1-.408-.134-.616-.111-.622-.2-1.252-.256-1.889a3.81,3.81,0,0,1,.563-2.366Zm-10.107-2.852a3.509,3.509,0,0,1-4.376.467l4.522-4.66A3.19,3.19,0,0,1,944.191,400.007Zm-25.552,2.968a8.652,8.652,0,0,1-.614-6.091l.362.013c.188.009.375.018.551.031.211.014.409.034.606.054.165.017.33.034.487.056.187.025.364.058.541.091.146.027.293.053.433.086.173.04.34.089.506.138.131.039.265.074.393.119.168.058.333.128.5.2.122.051.244.1.364.153.175.081.351.178.527.274.113.06.223.113.337.18.2.117.409.253.618.39.1.062.188.115.286.182s.186.134.275.2l-2.209,2.209a.75.75,0,0,0-.219.53v2.835c0,.015.007.028.008.043a.75.75,0,0,0,.04.2c.008.023.012.047.022.069s.005.018.009.026l.679,1.359A7.616,7.616,0,0,1,918.639,402.975Zm5.242,1.106v-1.988L926,399.971c.043.04.093.077.134.117s.084.08.123.121a6.089,6.089,0,0,1,.48.556c.024.032.045.064.068.095.125.173.238.347.339.52.021.036.044.072.064.107.106.191.2.38.279.566.019.042.035.084.052.125.072.175.137.347.189.513l.015.042c.055.178.1.347.136.508q.012.056.024.108c.033.152.06.3.079.428l.007.051c.017.118.029.225.037.319l0,.039A6.506,6.506,0,0,1,923.881,404.081Zm11.258,8.285a5.057,5.057,0,0,0,.906.088,4.969,4.969,0,0,0,3.537-1.465,4.386,4.386,0,0,0,1.291-3.512,5.48,5.48,0,0,0-1.635-3.39.7.7,0,0,0-.536-.219.746.746,0,0,0-.532.227l-5.124,5.28-3.5-5c0-.036,0-.08-.007-.122l0-.056c-.005-.08-.013-.168-.023-.265l-.005-.046c-.009-.082-.02-.169-.033-.263-.005-.037-.013-.078-.019-.117-.011-.076-.024-.153-.039-.234-.009-.049-.02-.1-.03-.15-.016-.079-.034-.159-.053-.242-.013-.055-.027-.11-.041-.166-.022-.086-.047-.175-.073-.264-.016-.057-.032-.112-.05-.17-.031-.1-.067-.2-.1-.307-.017-.05-.033-.1-.052-.148-.058-.154-.121-.311-.193-.469-.008-.018-.017-.036-.025-.053q-.1-.211-.211-.427c-.028-.053-.061-.106-.091-.159-.06-.108-.123-.216-.191-.324-.039-.062-.081-.124-.123-.186-.067-.1-.138-.2-.212-.3-.047-.064-.1-.126-.145-.189-.08-.1-.163-.2-.249-.3-.054-.061-.106-.121-.162-.181-.1-.1-.2-.206-.312-.308-.052-.05-.1-.1-.156-.15-.167-.149-.342-.295-.531-.436-.377-.281-.733-.535-1.076-.768-.111-.075-.215-.135-.323-.205-.227-.148-.456-.3-.675-.424-.127-.074-.253-.135-.378-.2-.194-.1-.389-.211-.581-.3-.134-.063-.27-.115-.4-.171-.182-.077-.367-.154-.552-.218-.142-.05-.291-.092-.435-.135-.185-.055-.372-.109-.563-.155-.153-.036-.314-.067-.472-.1-.2-.038-.4-.074-.6-.1-.17-.024-.349-.045-.526-.065-.215-.023-.438-.045-.667-.062-.192-.014-.393-.026-.6-.036-.111-.005-.208-.015-.322-.02.426-5.228,5.476-8.442,13.394-8.442,4.823,0,8.319,3.272,12.155,7.283l-5.62,5.79a.75.75,0,0,0,.008,1.053,5.01,5.01,0,0,0,7.074,0,4.429,4.429,0,0,0,1.2-4.051,44.967,44.967,0,0,0,5.97,5.352l.294.261c-.019.04-.03.082-.048.121-.036.084-.067.169-.1.254-.062.165-.117.332-.163.5-.024.09-.047.181-.067.272a5.432,5.432,0,0,0-.082.539c-.009.082-.022.163-.027.246a5.4,5.4,0,0,0,.008.794c.062.7.157,1.391.281,2.074.041.226.1.445.151.669.1.453.189.906.311,1.348.072.263.166.515.247.773.124.394.242.79.386,1.173.1.27.224.528.335.793.151.358.295.719.464,1.067.128.265.276.517.415.776.176.331.348.664.541.982.154.255.325.495.49.742.2.3.4.609.616.9.179.239.372.463.56.694.226.276.45.555.689.817.2.22.417.425.628.635.188.188.364.389.56.568l-.462,1.433-.842-.337a1.25,1.25,0,0,0-.929,2.321l1,.4-.2.628-1.288-.515a1.25,1.25,0,1,0-.928,2.321l1.447.578-3.978,12.33-.861-.533c-10.343-6.422-12.329-18.784-12.409-19.307l0-.014a.372.372,0,0,0-.021-.052c-.005-.022-.015-.043-.022-.064a.691.691,0,0,0-.032-.09c-.011-.022-.021-.045-.034-.066s-.008-.03-.017-.042Zm-.994-1.971,4.526-4.663a3.787,3.787,0,0,1,.707,1.868,2.873,2.873,0,0,1-.856,2.328,3.505,3.505,0,0,1-4.377.467Zm1.164,13.266a3.87,3.87,0,0,1,.887-2.821,3.633,3.633,0,0,1,1.758-1.151v.075c0,.066,0,.135,0,.207,0,.137,0,.286.006.445,0,.078,0,.15.005.233.006.242.015.5.027.783,0,.042.005.088.007.131q.018.374.045.791c.007.1.015.207.023.313q.027.378.064.786c.009.1.017.2.027.309.036.374.077.762.125,1.169.008.07.019.145.028.216q.063.512.141,1.055c.02.139.042.28.063.422.052.341.11.69.171,1.047.022.123.041.241.063.366q.128.708.283,1.453c.023.11.049.223.073.334q.129.6.278,1.22c.039.164.08.327.121.493q.157.632.338,1.281c.034.121.064.24.1.363q.232.818.5,1.662c.045.138.093.279.139.419.091.276.178.55.276.829A20.421,20.421,0,0,1,935.309,423.661Zm16.168,17.068a14.451,14.451,0,0,1-8.255-2.642c-.177-.433-.342-.863-.5-1.291-.058-.152-.122-.306-.177-.457q-.333-.913-.62-1.807c-.052-.16-.095-.316-.144-.476-.135-.431-.267-.862-.387-1.285-.065-.23-.121-.454-.182-.681-.092-.344-.185-.688-.268-1.024-.059-.242-.111-.477-.166-.715-.072-.31-.144-.621-.209-.923-.051-.24-.1-.472-.142-.707-.057-.287-.114-.575-.164-.854-.042-.23-.08-.453-.117-.677-.045-.268-.089-.535-.129-.794-.033-.218-.063-.43-.092-.64-.018-.132-.035-.259-.052-.388.022.054.047.11.069.164q.108.264.223.532c.042.1.085.2.128.294q.114.26.236.524l.142.307q.129.271.266.548c.048.1.1.2.145.294.113.221.23.445.35.669.032.061.062.12.1.18q.231.426.482.857c.044.075.09.149.135.224.126.212.254.425.388.638.065.1.132.207.2.311.12.187.242.373.368.559.074.111.15.221.227.331.126.183.256.364.388.546.081.11.16.22.243.329.142.19.289.378.438.567.077.1.152.2.231.293q.3.369.616.732c.033.038.063.076.1.113q.367.418.759.827c.078.081.16.161.239.242.187.191.376.381.571.568.1.1.209.2.314.293.181.168.364.334.551.5.115.1.232.2.349.3.189.16.383.317.579.474.119.1.238.19.36.284.216.165.438.327.663.487.107.078.213.157.323.233q.505.351,1.038.683l1.178.73-.235.728Zm1.5,10.2-2.359-.943.2-.628,2.36.944Zm.975-3.011-2.362-.945,1.7-5.261h0l.583-1.806,4.24-13.144,2.37.948-4.505,13.965Zm9.533,2.058a2.088,2.088,0,0,1-2.085,2.085h-6.112a1.217,1.217,0,0,0-.51-.411l-.394-.158.2-.628.68.273a1.25,1.25,0,1,0,.928-2.322l-.839-.336,1.769-5.483c2.033,1.246,4.185,2.56,6.36,3.886Zm7.743-.144-1.407-.853c-1.7-1.033-3.452-2.1-5.2-3.159l-.081-.05-6.945-4.243,4.153-12.874,7.3,6.818a.763.763,0,0,0,.176.123h0v0a2.244,2.244,0,0,0,.484.174l.016,0a2.13,2.13,0,0,0,.469.055l.015,0c.039,0,.077-.012.116-.014a2.135,2.135,0,0,0,2.012-1.846l.574-4.02.4-2.766c.219.231.441.471.673.728l.082.094c.213.237.431.486.654.744.107.125.218.258.327.388.15.178.3.359.455.546.131.16.264.324.4.491s.289.364.435.551.279.357.421.543c.155.2.313.418.471.631.135.182.269.361.406.55.2.281.41.576.617.872.095.136.188.264.283.4.29.422.583.862.878,1.314l3.66,21.962-.367-.221-.531-.321-.457-.276-.66-.4-.011-.006c-2.4-1.449-5.852-3.537-9.665-5.849Zm13.48,25.25c-3.172-4.927-5.779-9.841-8.3-14.593-1.61-3.034-3.153-5.944-4.73-8.629l.1.06c5.849,3.546,10.621,6.424,11.679,7.061.071.207.189.546.358,1.026l.006.015c.054.153.113.322.178.505l.066.186.186.522.061.173c.07.194.144.4.222.619l.075.211.281.781.063.175c.242.67.516,1.426.825,2.274l.138.38c.114.311.23.63.353.964.054.15.112.307.168.461.121.33.245.669.375,1.021.065.178.131.358.2.542l.413,1.121c.068.186.136.369.207.561.149.4.3.824.463,1.252l.224.607c.233.627.473,1.275.726,1.955.194.521.405,1.035.624,1.544.059.14.12.278.182.416q.279.63.578,1.246c.044.09.085.18.129.269q.362.727.745,1.431c.066.122.134.24.2.36q.311.561.632,1.1c.067.113.133.227.2.34q.4.666.813,1.3c.053.083.107.162.161.245q.345.529.692,1.036l.235.341c.274.393.547.779.818,1.149l.019.025c.274.374.543.73.81,1.078l.225.291q.33.424.648.82l.14.175c.252.311.495.6.731.884.061.073.119.14.179.21q.279.33.539.627c.051.059.1.119.154.176.027.031.056.066.083.1C995.767,488.134,990.8,484.54,984.706,475.078Zm14.28,12.576c-.293-.347-.6-.721-.926-1.119-.075-.093-.154-.2-.23-.291q-.378-.473-.772-.986c-.117-.152-.235-.31-.353-.467-.241-.32-.484-.653-.729-.993-.119-.165-.237-.329-.357-.5q-.449-.639-.9-1.318c-.06-.09-.12-.176-.18-.267-.353-.541-.7-1.1-1.045-1.675-.094-.157-.185-.321-.278-.481q-.372-.641-.728-1.3c-.111-.2-.219-.412-.326-.62-.223-.431-.436-.869-.643-1.311-.093-.2-.187-.392-.276-.591-.284-.636-.556-1.279-.8-1.931-.263-.707-.514-1.383-.755-2.034-.09-.242-.172-.464-.258-.7-.142-.383-.285-.768-.419-1.131-.114-.308-.219-.6-.328-.89-.1-.273-.2-.552-.3-.813s-.19-.517-.283-.772c-.1-.27-.2-.543-.294-.8l-.255-.7-.25-.685-.243-.667c-.07-.194-.14-.386-.207-.57l-.232-.642-.176-.486-.186-.515-.192-.533c-.042-.118-.084-.234-.124-.345-.064-.179-.124-.348-.183-.511-.039-.112-.08-.225-.117-.329s-.08-.224-.118-.332c-.044-.123-.088-.246-.127-.357l-.107-.3-.077-.218-.125-.355-.032-.091c-.032-.093-.059-.17-.086-.246l-.039-.113-.023-.066-.108-.313-2.658-15.95L999.029,487.7Z" fill="#1a1a1a"/>
      <path id="Path_1100" data-name="Path 1100" d="M945.967,409.617a4.985,4.985,0,0,0,3.536-1.462c1.87-1.87,1.722-4.837-.344-6.9a.716.716,0,0,0-.535-.22.749.749,0,0,0-.533.227l-5.669,5.842a.75.75,0,0,0,.008,1.053A4.986,4.986,0,0,0,945.967,409.617Zm2.623-6.716a3.191,3.191,0,0,1-.147,4.193,3.51,3.51,0,0,1-4.376.466Z" fill="#1a1a1a"/>
    </g>
  </g>
</svg>